<?xml version="1.0" standalone="no"?>
<!DOCTYPE svg PUBLIC "-//W3C//DTD SVG 20010904//EN"
 "http://www.w3.org/TR/2001/REC-SVG-20010904/DTD/svg10.dtd">
<svg version="1.0" xmlns="http://www.w3.org/2000/svg"
 width="300.000000pt" height="300.000000pt" viewBox="0 0 300.000000 300.000000"
 preserveAspectRatio="xMidYMid meet">
<metadata>
Created by potrace 1.11, written by Peter Selinger 2001-2013
</metadata>
<g transform="translate(0.000000,300.000000) scale(0.100000,-0.100000)"
fill="#000000" stroke="none">
<path d="M2585 2650 c-55 -10 -113 -22 -130 -28 -16 -5 -52 -17 -80 -26 -174
-58 -263 -94 -295 -121 -8 -6 -35 -19 -59 -29 -24 -9 -50 -23 -58 -31 -8 -8
-22 -15 -32 -15 -9 0 -32 -13 -51 -30 l-35 -29 28 -1 c15 0 27 3 27 8 0 4 44
29 98 56 111 57 112 57 172 89 25 13 70 30 100 37 30 8 60 17 65 20 9 6 39 15
133 40 118 32 290 44 371 25 45 -10 34 9 -17 31 -54 22 -124 24 -237 4z"/>
<path d="M1767 2313 c-12 -11 -8 -23 8 -23 8 0 15 7 15 15 0 16 -12 20 -23 8z"/>
<path d="M1538 2155 c-57 -42 -63 -56 -10 -24 20 12 49 29 65 36 31 17 34 23
10 23 -10 0 -39 -16 -65 -35z"/>
<path d="M1437 2093 c-13 -12 -7 -23 12 -23 10 0 21 7 25 15 5 15 -24 22 -37
8z"/>
<path d="M2860 2077 c0 -8 -9 -22 -20 -32 -11 -10 -20 -26 -20 -35 0 -9 -13
-29 -30 -45 -16 -16 -30 -34 -30 -41 0 -7 -24 -41 -52 -76 -29 -34 -57 -72
-63 -85 -17 -37 -218 -244 -232 -239 -7 3 -12 0 -10 -7 1 -7 -7 -11 -19 -10
-26 3 -85 -54 -67 -65 20 -12 -2 -35 -26 -27 -17 5 -21 2 -21 -15 0 -17 -4
-20 -21 -15 -25 8 -65 -25 -84 -70 -12 -26 -17 -29 -49 -27 -31 3 -37 0 -46
-22 -6 -16 -17 -26 -29 -26 -20 0 -54 -37 -46 -50 2 -4 -6 -5 -18 -3 -14 3
-30 -3 -41 -16 -11 -12 -27 -21 -37 -21 -23 0 -78 -47 -89 -75 -7 -18 -19 -24
-52 -27 -24 -3 -46 -3 -49 -1 -4 1 -3 20 3 40 5 21 14 58 19 82 11 52 13 54
95 80 76 25 150 72 131 82 -16 10 -158 -9 -172 -22 -5 -5 -23 -9 -40 -9 -17 0
-35 -4 -40 -9 -6 -5 -37 -16 -70 -26 -33 -9 -68 -21 -77 -26 -10 -5 -25 -9
-33 -9 -9 0 -27 -7 -40 -16 -14 -9 -32 -13 -41 -10 -15 6 -15 8 0 29 9 12 23
38 31 57 9 19 22 41 29 50 25 27 106 193 106 216 0 22 -17 34 -48 34 -17 0
-55 -39 -129 -131 -21 -26 -53 -59 -70 -74 -18 -15 -33 -30 -33 -34 0 -12
-105 -121 -117 -121 -6 0 -18 -11 -27 -25 -9 -14 -47 -50 -84 -81 l-67 -56
-79 6 c-44 4 -85 10 -90 15 -23 17 -90 19 -178 5 -50 -8 -92 -13 -94 -11 -4 4
15 65 29 92 6 11 22 43 35 70 13 28 35 63 48 78 13 16 24 36 24 44 0 9 16 34
35 57 19 22 47 56 62 74 16 18 40 46 54 60 14 15 33 42 43 59 9 18 32 44 51
59 45 34 49 63 5 37 -16 -9 -30 -23 -30 -30 0 -7 -12 -19 -27 -27 -16 -8 -52
-42 -81 -75 -29 -34 -59 -61 -65 -61 -7 0 -23 -16 -37 -35 -14 -19 -30 -35
-37 -35 -7 0 -17 -18 -23 -40 -9 -35 -43 -80 -59 -80 -6 0 -36 -57 -79 -150
-11 -25 -26 -65 -33 -90 -13 -45 -35 -80 -51 -80 -13 0 -68 -27 -103 -50 -16
-11 -47 -28 -67 -40 -55 -29 -224 -201 -242 -245 -26 -62 2 -135 69 -181 61
-41 106 -53 177 -48 139 11 199 20 233 33 55 22 153 53 172 54 12 1 25 5 29 9
4 5 19 8 32 8 26 0 36 3 147 39 62 21 160 40 230 45 64 5 138 17 160 26 11 5
37 14 57 20 53 16 61 34 12 26 -72 -12 -164 -18 -164 -11 0 15 47 44 72 45 15
0 30 5 33 10 3 6 17 10 29 10 13 0 29 7 36 15 7 8 23 15 35 15 12 0 28 7 35
15 7 8 18 15 24 15 6 0 22 6 36 13 61 32 100 29 100 -7 0 -12 4 -26 8 -32 5
-5 15 -25 22 -44 14 -36 67 -100 83 -100 10 0 6 31 -15 108 -9 29 -14 76 -14
104 2 58 16 74 124 134 34 20 67 44 73 55 5 10 16 19 24 19 20 0 125 66 194
121 31 26 71 54 89 63 18 9 32 21 32 26 0 5 11 15 25 22 27 14 162 136 280
253 97 96 235 273 235 301 0 6 9 19 20 29 11 10 29 38 40 64 12 25 30 64 41
86 22 45 23 55 9 55 -5 0 -10 -6 -10 -13z m-1575 -927 c-8 -16 -15 -34 -15
-41 0 -6 -11 -24 -25 -41 -14 -16 -25 -36 -25 -44 0 -8 -9 -23 -20 -34 -19
-19 -22 -19 -50 -5 -37 19 -38 40 -4 68 15 12 52 46 82 75 62 59 80 66 57 22z
m349 11 c3 -5 0 -24 -8 -42 -8 -19 -17 -57 -21 -86 -4 -28 -12 -58 -18 -66 -7
-9 -41 -27 -77 -42 -36 -15 -72 -33 -80 -40 -8 -7 -33 -18 -55 -24 -22 -7 -67
-25 -100 -41 -33 -15 -82 -36 -110 -45 -27 -10 -57 -23 -65 -30 -8 -7 -31 -16
-50 -20 -33 -7 -42 -11 -91 -36 -39 -20 -186 13 -233 52 -16 13 -50 46 -77 74
-43 45 -48 55 -58 120 -13 88 -8 93 96 112 140 25 223 28 260 7 37 -19 40 -42
8 -59 -11 -6 -40 -30 -65 -54 -25 -24 -56 -49 -70 -57 -14 -7 -43 -32 -65 -54
-33 -33 -38 -43 -29 -58 13 -20 54 -29 63 -13 4 6 32 29 62 51 60 44 89 68
167 137 49 43 54 45 77 33 36 -19 53 -39 80 -90 12 -25 29 -45 36 -45 8 0 32
36 55 81 55 111 83 144 140 166 27 10 55 18 62 18 7 0 40 13 75 30 66 32 82
35 91 21z m-1129 -227 c7 -56 36 -105 98 -167 48 -49 76 -69 125 -86 58 -22
80 -47 50 -55 -12 -3 -127 -38 -188 -56 -107 -32 -297 -61 -353 -54 -72 10
-117 51 -117 109 0 35 7 52 38 92 73 91 149 160 213 193 13 7 35 23 49 35 27
25 60 36 73 25 4 -4 10 -20 12 -36z"/>
<path d="M1390 2039 c0 -5 5 -7 10 -4 6 3 10 8 10 11 0 2 -4 4 -10 4 -5 0 -10
-5 -10 -11z"/>
<path d="M1100 1820 c-12 -8 -11 -10 8 -10 12 0 22 5 22 10 0 13 -11 13 -30 0z"/>
<path d="M1054 1780 c-12 -4 -24 -15 -27 -23 -10 -25 19 -27 42 -3 33 35 28
43 -15 26z"/>
</g>
</svg>
